# Blender v3.3.0 OBJ File: ''
# www.blender.org
o Cube.001
v 0.366774 0.760898 -0.366774
v -0.366774 0.760898 -0.366774
v -0.366774 0.760898 0.366774
v 0.366774 0.760898 0.366774
v 0.366774 0.027351 0.366774
v -0.366774 0.027351 0.366774
v -0.366774 0.027351 -0.366774
v 0.366774 0.027351 -0.366774
vt 0.320989 0.183760
vt 0.323218 0.183760
vt 0.323218 0.185989
vt 0.320989 0.185989
vt 0.318760 0.185989
vt 0.320989 0.188217
vt 0.318760 0.188217
vt 0.318760 0.179303
vt 0.320989 0.179303
vt 0.320989 0.181531
vt 0.318760 0.181531
vt 0.316532 0.183760
vt 0.318760 0.183760
vt 0.316532 0.185989
vn 0.0000 1.0000 0.0000
vn 0.0000 -0.0000 1.0000
vn -1.0000 -0.0000 0.0000
vn 0.0000 -1.0000 -0.0000
vn 1.0000 0.0000 0.0000
vn 0.0000 0.0000 -1.0000
usemtl Material.001
s 1
f 1/1/1 2/2/1 3/3/1 4/4/1
f 5/5/2 4/4/2 3/6/2 6/7/2
f 6/8/3 3/9/3 2/10/3 7/11/3
f 7/12/4 8/13/4 5/5/4 6/14/4
f 8/13/5 1/1/5 4/4/5 5/5/5
f 7/11/6 2/10/6 1/1/6 8/13/6
